# xmcd
#
# Track frame offsets: 
#        150
#        12321
#        28377
#        47689
#        65565
#        89235
#        106938
#        128919
#        145125
#        159362
#        174146
#        195815
#        212711
#        230171
#        245923
#        258509
#        268892
#        287426
#        306716
#        324473
#
# Disc length: 4632 seconds
#
# Revision: 0
# Processed by: cddbd v1.5.2PL0 Copyright (c) Steve Scherf et al.
# Submitted via: ExactAudioCopy v1.1
#
DISCID=2f121614
DTITLE=Various Artist - De Pré Historie - De Jaren '70 Vol. 2 - De Ultieme 10
DTITLE=CD Collectie - 1979
DYEAR=2019
DGENRE=Top 40
TTITLE0=Queen - Crazy Little Thing Called Love
TTITLE1=Cheap Trick - I Want You To Want Me (Live)
TTITLE2=The Boomtown Rats - I Don't Like Mondays
TTITLE3=Art Garfunkel - Bright Eyes
TTITLE4=Ellen Foley - We Belong To The Night
TTITLE5=Toto - Hold The Line
TTITLE6=The Knack - My Sharona
TTITLE7=Earth, Wind and Fire - September
TTITLE8=Viola Wills - Gonna Get Along Without You Now
TTITLE9=Gloria Gaynor - I Will Survive
TTITLE10=Abba - Gimme! Gimme! Gimme! (A Man After Midnight)
TTITLE11=The Jacksons - Shake Your Body (Down To The Ground)
TTITLE12=The Commodores - Sail On
TTITLE13=Al Hudson and The Partners - You Can Do It
TTITLE14=The Specials - Gangsters
TTITLE15=Madness - One Step Beyond
TTITLE16=The Real Thing - Can You Feel The Force
TTITLE17=Roxy Music - Dance Away
TTITLE18=Chris Norman and Suzi Quatro - Stumblin' In
TTITLE19=Will Tura - In Mijn Caravan
EXTD=
EXTT0=
EXTT1=
EXTT2=
EXTT3=
EXTT4=
EXTT5=
EXTT6=
EXTT7=
EXTT8=
EXTT9=
EXTT10=
EXTT11=
EXTT12=
EXTT13=
EXTT14=
EXTT15=
EXTT16=
EXTT17=
EXTT18=
EXTT19=
PLAYORDER=
